<?xml version="1.0" encoding="UTF-8" standalone="no"?>
<!DOCTYPE svg PUBLIC "-//W3C//DTD SVG 1.1//EN" "http://www.w3.org/Graphics/SVG/1.1/DTD/svg11.dtd">
<svg version="1.1" xmlns="http://www.w3.org/2000/svg" xmlns:xlink="http://www.w3.org/1999/xlink" preserveAspectRatio="xMidYMid meet" viewBox="0 0 640 640"><defs><path d="M335 36.89L342.38 37.71L349.67 38.84L356.86 40.29L363.95 42.03L370.94 44.07L377.81 46.41L384.56 49.03L391.19 51.92L397.69 55.09L404.05 58.52L410.27 62.21L416.34 66.15L422.26 70.33L428.02 74.76L433.61 79.41L439.03 84.3L444.27 89.4L449.33 94.72L454.2 100.24L458.87 105.96L463.34 111.88L467.61 117.98L471.66 124.27L475.49 130.73L479.1 137.36L482.48 144.15L485.62 151.1L488.52 158.19L491.17 165.43L493.57 172.8L495.71 180.3L497.58 187.93L499.18 195.67L500.5 203.53L501.54 211.49L502.29 219.54L502.74 227.69L502.89 235.92L502.74 244.15L502.29 252.32L501.54 260.42L500.5 268.48L499.18 276.49L497.58 284.48L495.71 292.44L493.57 300.38L491.17 308.33L488.52 316.28L485.62 324.24L482.48 332.23L479.1 340.25L475.49 348.32L471.66 356.44L467.61 364.62L463.34 372.87L458.87 381.2L454.2 389.62L449.33 398.14L444.27 406.77L439.03 415.52L433.61 424.39L428.02 433.4L422.26 442.56L416.34 451.87L410.27 461.35L404.05 471L397.69 480.83L391.19 490.86L384.56 501.09L377.81 511.53L370.94 522.19L363.95 533.08L356.86 544.21L349.67 555.59L342.38 567.22L335 579.13L327.54 591.31L320 603.77L312.46 591.31L305 579.13L297.62 567.22L290.33 555.59L283.14 544.21L276.05 533.08L269.06 522.19L262.19 511.53L255.44 501.09L248.81 490.86L242.31 480.83L235.95 471L229.73 461.35L223.66 451.87L217.74 442.56L211.98 433.4L206.39 424.39L200.97 415.52L195.73 406.77L190.67 398.14L185.8 389.62L181.13 381.2L176.66 372.87L172.39 364.62L168.34 356.44L164.51 348.32L160.9 340.25L157.52 332.23L154.38 324.24L151.48 316.28L148.83 308.33L146.43 300.38L144.29 292.44L142.42 284.48L140.82 276.49L139.5 268.48L138.46 260.42L137.71 252.32L137.26 244.15L137.11 235.92L137.26 227.69L137.71 219.54L138.46 211.49L139.5 203.53L140.82 195.67L142.42 187.93L144.29 180.3L146.43 172.8L148.83 165.43L151.48 158.19L154.38 151.1L157.52 144.15L160.9 137.36L164.51 130.73L168.34 124.27L172.39 117.98L176.66 111.88L181.13 105.96L185.8 100.24L190.67 94.72L195.73 89.4L200.97 84.3L206.39 79.41L211.98 74.76L217.74 70.33L223.66 66.15L229.73 62.21L235.95 58.52L242.31 55.09L248.81 51.92L255.44 49.03L262.19 46.41L269.06 44.07L276.05 42.03L283.14 40.29L290.33 38.84L297.62 37.71L305 36.89L312.46 36.39L320 36.23L327.54 36.39L335 36.89ZM312.89 131.13L309.4 131.52L305.95 132.06L302.54 132.74L299.18 133.57L295.87 134.54L292.62 135.64L289.42 136.88L286.28 138.25L283.2 139.75L280.19 141.38L277.24 143.12L274.36 144.99L271.56 146.97L268.83 149.07L266.19 151.28L263.62 153.59L261.14 156.01L258.74 158.52L256.43 161.14L254.22 163.85L252.1 166.65L250.08 169.55L248.16 172.52L246.35 175.58L244.64 178.72L243.04 181.94L241.55 185.23L240.17 188.59L238.92 192.02L237.78 195.51L236.77 199.07L235.88 202.68L235.13 206.35L234.5 210.07L234.01 213.84L233.65 217.65L233.44 221.51L233.37 225.41L233.44 229.31L233.65 233.17L234.01 236.98L234.5 240.75L235.13 244.47L235.88 248.14L236.77 251.75L237.78 255.31L238.92 258.8L240.17 262.23L241.55 265.59L243.04 268.88L244.64 272.1L246.35 275.24L248.16 278.3L250.08 281.27L252.1 284.17L254.22 286.97L256.43 289.68L258.74 292.3L261.14 294.81L263.62 297.23L266.19 299.54L268.83 301.75L271.56 303.85L274.36 305.83L277.24 307.69L280.19 309.44L283.2 311.07L286.28 312.57L289.42 313.94L292.62 315.18L295.87 316.28L299.18 317.25L302.54 318.08L305.95 318.76L309.4 319.3L312.89 319.69L316.43 319.92L320 320L323.57 319.92L327.11 319.69L330.6 319.3L334.05 318.76L337.46 318.08L340.82 317.25L344.13 316.28L347.38 315.18L350.58 313.94L353.72 312.57L356.8 311.07L359.81 309.44L362.76 307.69L365.64 305.83L368.44 303.85L371.17 301.75L373.81 299.54L376.38 297.23L378.86 294.81L381.26 292.3L383.57 289.68L385.78 286.97L387.9 284.17L389.92 281.27L391.84 278.3L393.65 275.24L395.36 272.1L396.96 268.88L398.45 265.59L399.83 262.23L401.08 258.8L402.22 255.31L403.23 251.75L404.12 248.14L404.87 244.47L405.5 240.75L405.99 236.98L406.35 233.17L406.56 229.31L406.63 225.41L406.56 221.51L406.35 217.65L405.99 213.84L405.5 210.07L404.87 206.35L404.12 202.68L403.23 199.07L402.22 195.51L401.08 192.02L399.83 188.59L398.45 185.23L396.96 181.94L395.36 178.72L393.65 175.58L391.84 172.52L389.92 169.55L387.9 166.65L385.78 163.85L383.57 161.14L381.26 158.52L378.86 156.01L376.38 153.59L373.81 151.28L371.17 149.07L368.44 146.97L365.64 144.99L362.76 143.12L359.81 141.38L356.8 139.75L353.72 138.25L350.58 136.88L347.38 135.64L344.13 134.54L340.82 133.57L337.46 132.74L334.05 132.06L330.6 131.52L327.11 131.13L323.57 130.9L320 130.82L316.43 130.9L312.89 131.13Z" id="cUfNZD8gj"></path></defs><g visibility="inherit"><g visibility="inherit"><g visibility="inherit"><use xlink:href="#cUfNZD8gj" opacity="1" fill="#ffffff" fill-opacity="1"></use></g></g></g></svg>