<?xml version="1.0" encoding="UTF-8" standalone="no"?>
<!DOCTYPE svg PUBLIC "-//W3C//DTD SVG 1.1//EN" "http://www.w3.org/Graphics/SVG/1.1/DTD/svg11.dtd">
<svg version="1.1" xmlns="http://www.w3.org/2000/svg" xmlns:xlink="http://www.w3.org/1999/xlink" preserveAspectRatio="xMidYMid meet" viewBox="0 0 256 256"><defs><path d="M256 131.77C256 202.42 198.65 259.77 128 259.77C57.35 259.77 0 202.42 0 131.77C0 61.13 57.35 3.77 128 3.77C198.65 3.77 256 61.13 256 131.77Z" id="ahpSVPbXS"></path><path d="M234.13 60.23L240.54 70.78L245.93 81.97L250.24 93.73L253.4 105.99L255.34 118.69L256 131.77L255.34 144.85L253.4 157.55L250.24 169.82L245.93 181.58L240.54 192.76L234.13 203.32L226.76 213.17L218.49 222.26L209.4 230.53L199.55 237.9L188.99 244.31L177.8 249.71L166.05 254.01L153.78 257.17L141.08 259.11L128 259.77L114.92 259.11L102.22 257.17L89.95 254.01L78.2 249.71L67.01 244.31L56.45 237.9L46.6 230.53L37.51 222.26L35.46 220.01L42.94 226.81L52.8 234.19L63.36 240.6L74.56 246L86.32 250.31L98.59 253.47L111.3 255.41L124.39 256.07L137.47 255.41L150.18 253.47L162.45 250.31L174.22 246L185.41 240.6L195.97 234.19L205.83 226.81L214.93 218.54L223.2 209.44L230.57 199.58L236.99 189.02L242.39 177.83L246.69 166.07L249.85 153.8L251.79 141.09L252.46 128L251.79 114.91L249.85 102.2L246.69 89.93L242.39 78.17L236.99 66.98L230.57 56.42L223.2 46.56L217.97 40.81L218.49 41.28L226.76 50.37L226.76 50.37L234.13 60.23Z" id="b711pfVNi4"></path><path d="M235.02 131.77C235.02 190.84 187.06 238.79 128 238.79C68.94 238.79 20.98 190.84 20.98 131.77C20.98 72.71 68.94 24.75 128 24.75C187.06 24.75 235.02 72.71 235.02 131.77Z" id="a3BKEceXdI"></path></defs><g visibility="inherit"><g visibility="inherit"><g visibility="inherit"><use xlink:href="#ahpSVPbXS" opacity="1" fill="#ffffff" fill-opacity="1"></use></g><g visibility="inherit"><use xlink:href="#b711pfVNi4" opacity="1" fill="#d8d8d8" fill-opacity="1"></use></g><g visibility="inherit"><use xlink:href="#a3BKEceXdI" opacity="1" fill="#41cfc8" fill-opacity="1"></use></g></g></g></svg>